<?xml version="1.0" encoding="utf-8"?><svg xmlns="http://www.w3.org/2000/svg" xmlns:xlink="http://www.w3.org/1999/xlink"><symbol viewBox="0 0 512 512" id="24-hours" xmlns="http://www.w3.org/2000/svg"><path d="M437.051 422.847c-3.906-3.905-10.268-3.874-14.174.031-3.905 3.905-3.905 10.237 0 14.143 1.953 1.952 4.512 2.929 7.071 2.929s5.118-.977 7.071-2.929l.063-.063c3.905-3.905 3.874-10.206-.031-14.111z"/><path d="M511.491 239.82c-3.915-62.189-30.363-120.73-74.472-164.839C388.667 26.63 324.38.001 256 .001c-65.179 0-126.638 24.192-174.124 68.332l-10.872-9.955a10 10 0 00-16.753 7.375v74.749c0 5.522 4.478 10 10 10H139a10 10 0 007.279-16.857l-17.604-18.686c74.492-67.323 189.899-65.099 261.682 6.686 74.085 74.084 74.085 194.629 0 268.713C354.469 426.245 306.753 446.01 256 446.01s-98.469-19.765-134.356-55.652C85.755 354.469 65.99 306.755 65.99 256.001c0-5.522-4.478-10-10-10H10c-5.522 0-10 4.478-10 10 0 68.38 26.629 132.667 74.98 181.02 43.813 43.813 101.95 70.234 163.7 74.397 5.778.39 11.543.582 17.302.582 55.186 0 109.029-17.772 153.231-50.87 4.421-3.311 5.32-9.578 2.011-13.999-3.312-4.42-9.578-5.32-13.999-2.011-93.188 69.779-225.645 60.217-308.103-22.242-42.211-42.21-66.463-97.591-68.916-156.877h26.016C48.659 318.343 70.2 367.2 107.501 404.5c81.883 81.883 215.115 81.883 296.998 0 81.882-81.883 81.882-215.115 0-296.998-81.883-81.883-215.115-81.883-296.998 0a10 10 0 00-.207 13.929l8.546 9.071H74.251V88.469l1.048.959a10 10 0 0013.824-.304C133.697 44.549 192.962 20.001 256 20.001s122.303 24.548 166.877 69.123c83.24 83.24 92.23 216.452 20.912 309.863-3.352 4.39-2.51 10.665 1.88 14.017 4.388 3.353 10.665 2.51 14.017-1.88 37.288-48.838 55.686-109.675 51.805-171.304z"/><path d="M181.392 289h-30.264a223.995 223.995 0 003.987-3.743c18.921-18.217 28.119-33.656 28.119-47.202 0-20.968-14.088-35.055-35.056-35.055-19.329 0-35.055 15.726-35.055 35.055 0 5.522 4.478 10 10 10s10-4.478 10-10c0-8.301 6.754-15.055 15.055-15.055 15.056 0 15.056 11.331 15.056 15.055 0 13.92-26.839 39.25-45.895 52.789A10 10 0 00123.124 309h58.268c5.522 0 10-4.478 10-10s-4.478-10-10-10z"/><path d="M254.702 257.501h-6.826v-2.833c0-5.522-4.478-10-10-10s-10 4.478-10 10v2.833h-13.798l22.5-39.556c2.73-4.801 1.053-10.906-3.748-13.637-4.797-2.729-10.906-1.053-13.637 3.748l-31 54.5a10 10 0 008.693 14.945h30.99v21.5c0 5.522 4.478 10 10 10s10-4.478 10-10v-21.5h6.826c5.522 0 10-4.478 10-10s-4.478-10-10-10zm62.851-53.833c-5.157-1.982-10.941.587-12.924 5.742l-33.086 86c-1.983 5.154.588 10.94 5.742 12.924a9.99 9.99 0 003.589.67c4.017 0 7.807-2.438 9.335-6.412l33.086-86c1.983-5.154-.588-10.94-5.742-12.924zm79.535 3.627a10 10 0 00-8.212-4.294h-42c-5.522 0-10 4.478-10 10s4.478 10 10 10h27.609l-26.981 72.513c-1.926 5.175.709 10.933 5.885 12.859a9.969 9.969 0 003.486.631c4.058 0 7.875-2.489 9.373-6.516l32-86a9.996 9.996 0 00-1.16-9.193z"/></symbol><symbol id="Kyivstar_GSM" viewBox="0 0 35.77 34.4" xmlns="http://www.w3.org/2000/svg"><defs><style>.bcls-1{fill:#004289;fill-rule:evenodd}</style></defs><path class="bcls-1" d="M328.25 298.06l-10-10.31a7 7 0 01.6-1.77c1.35-2.52 1.7-3.6 4.49-5.77a13.16 13.16 0 014.24-2.36l8.4-.22L323.2 284l5.05 14.1zm-15.93-14.6l-12.09-5.85L315 278l3.13-14.34 3 13.91a22.61 22.61 0 00-8.82 5.89z" transform="translate(-300.23 -263.66)"/><path class="bcls-1" d="M321.68 277.88a21 21 0 00-8.88 6.94l-4.8 13.23 3.33-4.12c0-.13.23-1.25.64-2.75a26.22 26.22 0 012-5.26 18.37 18.37 0 019.6-8.09l-1.86.05z" transform="translate(-300.23 -263.66)"/><path class="bcls-1" d="M313.46 292.08l2.37-2.08a19.41 19.41 0 011.18-3.49 17.85 17.85 0 019.29-8.7h-1.33a17.62 17.62 0 00-9.26 8 25.54 25.54 0 00-1.59 3.7c-.3.93-.46 1.7-.66 2.52z" transform="translate(-300.23 -263.66)"/></symbol><symbol viewBox="0 0 512 512" id="calendar" xmlns="http://www.w3.org/2000/svg"><path d="M452 40h-24V0h-40v40H124V0H84v40H60C26.916 40 0 66.916 0 100v352c0 33.084 26.916 60 60 60h392c33.084 0 60-26.916 60-60V100c0-33.084-26.916-60-60-60zm20 412c0 11.028-8.972 20-20 20H60c-11.028 0-20-8.972-20-20V188h432v264zm0-304H40v-48c0-11.028 8.972-20 20-20h24v40h40V80h264v40h40V80h24c11.028 0 20 8.972 20 20v48z"/><path d="M76 230h40v40H76zm80 0h40v40h-40zm80 0h40v40h-40zm80 0h40v40h-40zm80 0h40v40h-40zM76 310h40v40H76zm80 0h40v40h-40zm80 0h40v40h-40zm80 0h40v40h-40zM76 390h40v40H76zm80 0h40v40h-40zm80 0h40v40h-40zm80 0h40v40h-40zm80-80h40v40h-40z"/></symbol><symbol viewBox="0 0 512 512" id="cash-payment" xmlns="http://www.w3.org/2000/svg"><path d="M160 395.963V488a8 8 0 008 8h272a8 8 0 008-8V296a40.132 40.132 0 00-4.706-18.823L384 166V24a8 8 0 00-8-8H168a8 8 0 00-8 8v28.072L69.61 80.365a8 8 0 00-5.245 10.025zm-10.195-273.632l-4.781-15.276L160 102.367v132.878l-30.706-98.11 15.267-4.78a8 8 0 005.244-10.024zM432 296v184h-48a72.085 72.085 0 01-71.984-70.485 8 8 0 00-1.227-5.994L258.9 326.716a24 24 0 1139.771-26.872c.047.069.1.138.145.206l46.705 64.636A8 8 0 00352 368h24a8 8 0 008-8V200l45.177 84.706A24.1 24.1 0 01432 296zM224 424h-16V88h16a8 8 0 008-8V64h80v16a8 8 0 008 8h16v236.2l-24.15-33.423a40.352 40.352 0 00-3.078-3.948 47.99 47.99 0 10-65.36 7.729 40.118 40.118 0 002.225 41.117l50.391 74.58A87.4 87.4 0 00305.639 448H232v-16a8 8 0 00-8-8zm32.387-143.864a40.758 40.758 0 00-2.76 2.051 32 32 0 1142.347-5 40.013 40.013 0 00-39.587 2.949zM176 32h192v320h-11.911L352 346.341V80a8 8 0 00-8-8h-16V56a8 8 0 00-8-8h-96a8 8 0 00-8 8v16h-16a8 8 0 00-8 8v352a8 8 0 008 8h16v16a8 8 0 008 8h92.189a88.722 88.722 0 0017.305 16H176zm-16 36.837V85.6l-27.39 8.574a8 8 0 00-5.245 10.024l4.781 15.277-15.267 4.779a8 8 0 00-5.244 10.025L160 288.812v53.582L82.024 93.245z"/></symbol><symbol viewBox="0 0 64 64" id="doubt" xmlns="http://www.w3.org/2000/svg"><path d="M10 26h6v-6h-6v-2.869L1.197 23 10 28.869zm-2-.869L4.803 23 8 20.869V22h6v2H8zm46 3.738L62.803 23 54 17.131V20h-6v6h6zM50 24v-2h6v-1.131L59.197 23 56 25.131V24z"/><path d="M60 32h-4.146a3.978 3.978 0 00-3.578 2.211l-2.131 4.262-1.284-3.53a11.064 11.064 0 00-8.18-7.027l-3.865-.773-.591-2.363A8.018 8.018 0 0039.736 20H40c2.206 0 4-1.794 4-4 0-.946-.344-1.805-.896-2.491l.721-2.687c.116-.464.175-.942.175-1.42a5.873 5.873 0 00-3.855-5.504l-6.579-2.392A8.357 8.357 0 0030.697 1a8.431 8.431 0 00-6.715 3.358l-.508.676A4.006 4.006 0 0020 9c0 1.609.566 3.587.871 4.539A3.96 3.96 0 0020 16c0 2.206 1.794 4 4 4h.263a8.014 8.014 0 003.511 4.78l-.591 2.363-3.865.773a11.064 11.064 0 00-8.18 7.027l-1.284 3.53-2.131-4.262A3.976 3.976 0 008.146 32H4c-1.654 0-3 1.346-3 3s1.346 3 3 3h2.406l4.49 8.231A5.308 5.308 0 0015.559 49c1.854 0 3.599-.988 4.53-2.539l.697-1.048C20.91 47.282 21 49.234 21 51c0 5.822-.971 10.755-.98 10.804L19.781 63h24.438l-.239-1.196C43.971 61.755 43 56.822 43 51c0-1.767.09-3.719.215-5.589l.672 1.011A5.34 5.34 0 0048.441 49a5.308 5.308 0 004.663-2.769L57.594 38H60c1.654 0 3-1.346 3-3s-1.346-3-3-3zm-23.132-2.807l-.633 4.182-2.622-1.574 2.716-2.716zM30.867 38h2.265l1.823 12.764L32 55.197l-2.956-4.434zm2.398-2h-2.53l-.546-1.747L32 33.166l1.811 1.086zM40 18v-4c1.103 0 2 .897 2 2s-.897 2-2 2zm-18-2c0-1.103.897-2 2-2h.037c-.015.201-.037.401-.037.605V18c-1.103 0-2-.897-2-2zm2.46-4H24c-.503 0-.979.104-1.423.274C22.312 11.354 22 10.049 22 9c0-1.103.897-2 2-2h.5l1.082-1.442A6.423 6.423 0 0130.697 3c.747 0 1.482.129 2.185.385l6.579 2.392a3.87 3.87 0 012.428 4.544l-.52 1.936A3.944 3.944 0 0040 12h-1c-4.633 0-10.388-3.794-10.446-3.833L28 7.798l-.554.37A7.716 7.716 0 0024.46 12zM26 18v-3.395c0-1.709.755-3.309 2.047-4.393 1.562.955 5.875 3.378 9.953 3.741V18c0 3.309-2.691 6-6 6s-6-2.691-6-6zm6 8c.828 0 1.627-.127 2.379-.361l.514 2.055L32 30.586l-2.892-2.892.514-2.055c.751.234 1.55.361 2.378.361zm-4.329 3.086l2.716 2.716-2.622 1.574-.633-4.182zm-9.273 16.307a3.309 3.309 0 01-5.746-.119l-4.49-8.231A1.999 1.999 0 006.406 36H4a1.001 1.001 0 010-2h4.146c.762 0 1.448.424 1.789 1.105l4.171 8.342 1.789-.895-.808-1.615.239-.656 4.855 2.427zM32 61h-9.809c.299-1.852.809-5.646.809-10 0-5.993-.998-14.043-1.008-14.124l-1.984.248c.004.033.176 1.425.375 3.449l-4.369-2.184 1.004-2.762a9.054 9.054 0 016.693-5.75l1.457-.291 1.067 7.039 2.19-1.314.553 1.771-2.022 14.154L32 58.803l5.044-7.566-2.022-14.154.553-1.771 2.19 1.314 1.067-7.039 1.457.291a9.052 9.052 0 016.693 5.75l1.004 2.762-4.369 2.184c.199-2.024.371-3.416.375-3.449l-1.984-.248C41.998 36.957 41 45.007 41 51c0 4.354.51 8.148.809 10zm28-25h-2.406c-.732 0-1.405.399-1.756 1.043l-4.49 8.231A3.309 3.309 0 0148.441 47a3.352 3.352 0 01-2.864-1.646l-1.758-2.645 4.855-2.427.239.656-.808 1.615 1.789.895 4.171-8.342A1.99 1.99 0 0155.854 34H60a1.001 1.001 0 010 2z"/></symbol><symbol viewBox="0 0 26 26" id="email" xmlns="http://www.w3.org/2000/svg"><g clip-path="url(#fclip0)"><path d="M23.27 3.684H2.666A2.2 2.2 0 00.469 5.881v14.648a2.2 2.2 0 002.197 2.198h20.606a2.2 2.2 0 002.197-2.198V5.881a2.2 2.2 0 00-2.197-2.197zm-.303 1.464l-9.952 9.953-10.04-9.953h19.992zM1.933 20.226V6.177l7.054 6.994-7.054 7.055zm1.036 1.036l7.059-7.06 2.473 2.453a.732.732 0 001.034-.002l2.411-2.412 7.021 7.02H2.97zm21.034-1.036l-7.02-7.02 7.02-7.022v14.042z"/></g><defs><clipPath id="fclip0"><path transform="translate(.468 .705)" d="M0 0h25v25H0z"/></clipPath></defs></symbol><symbol viewBox="0 0 512 512" id="facebook" xmlns="http://www.w3.org/2000/svg"><path d="M452 0H60C26.916 0 0 26.916 0 60v392c0 33.084 26.916 60 60 60h392c33.084 0 60-26.916 60-60V60c0-33.084-26.916-60-60-60zm20 452c0 11.028-8.972 20-20 20H338V309h61.79L410 247h-72v-43c0-16.975 13.025-30 30-30h41v-62h-41c-50.923 0-91.978 41.25-91.978 92.174V247H216v62h60.022v163H60c-11.028 0-20-8.972-20-20V60c0-11.028 8.972-20 20-20h392c11.028 0 20 8.972 20 20v392z"/></symbol><symbol viewBox="0 0 512 512" id="filter" xmlns="http://www.w3.org/2000/svg"><path d="M420.404 0H91.596C41.09 0 0 41.09 0 91.596v328.809C0 470.91 41.09 512 91.596 512h328.809C470.91 512 512 470.91 512 420.404V91.596C512 41.09 470.91 0 420.404 0zM482 420.404C482 454.368 454.368 482 420.404 482H91.596C57.632 482 30 454.368 30 420.404V91.596C30 57.632 57.632 30 91.596 30h328.809C454.368 30 482 57.632 482 91.596z"/><path d="M432.733 112.467H204.272c-6.281-18.655-23.926-32.133-44.672-32.133s-38.391 13.478-44.672 32.133H79.267c-8.284 0-15 6.716-15 15s6.716 15 15 15h35.662c6.281 18.655 23.926 32.133 44.672 32.133s38.391-13.478 44.672-32.133h228.461c8.284 0 15-6.716 15-15s-6.716-15-15.001-15zM159.6 144.6c-9.447 0-17.133-7.686-17.133-17.133s7.686-17.133 17.133-17.133 17.133 7.686 17.133 17.133S169.047 144.6 159.6 144.6zM432.733 241h-35.662c-6.281-18.655-23.927-32.133-44.672-32.133s-38.39 13.478-44.671 32.133H79.267c-8.284 0-15 6.716-15 15s6.716 15 15 15h228.461c6.281 18.655 23.927 32.133 44.672 32.133s38.391-13.478 44.672-32.133h35.662c8.284 0 15-6.716 15-15s-6.716-15-15.001-15zM352.4 273.133c-9.447 0-17.133-7.686-17.133-17.133s7.686-17.133 17.133-17.133 17.133 7.686 17.133 17.133-7.686 17.133-17.133 17.133zm80.333 96.4H268.539c-6.281-18.655-23.926-32.133-44.672-32.133s-38.391 13.478-44.672 32.133H79.267c-8.284 0-15 6.716-15 15s6.716 15 15 15h99.928c6.281 18.655 23.926 32.133 44.672 32.133s38.391-13.478 44.672-32.133h164.195c8.284 0 15-6.716 15-15s-6.716-15-15.001-15zm-208.866 32.134c-9.447 0-17.133-7.686-17.133-17.133s7.686-17.133 17.133-17.133S241 375.086 241 384.533s-7.686 17.134-17.133 17.134z"/></symbol><symbol viewBox="-26 0 512 512.001" id="goal" xmlns="http://www.w3.org/2000/svg"><path d="M457.086 68.828l-21.879-19.266 21.879-19.261c3.402-3 4.566-7.676 2.969-11.918-1.606-4.246-5.57-6.988-10.106-6.988H359.41V7.504a7.504 7.504 0 10-15.008 0v101.203l-61.629 33.465a23.741 23.741 0 00-2.437-7.883l-8.684-16.953c-5.96-11.64-20.28-16.254-31.914-10.297l-6.715 3.438c-5.64 2.89-9.816 7.796-11.761 13.828a23.54 23.54 0 001.465 18.09l8.683 16.957a23.567 23.567 0 008.547 9.285c-4.61 6.207-6.797 13.84-9.047 21.77l-1.617 5.726a7.5 7.5 0 005.18 9.262 7.4 7.4 0 002.043.285 7.509 7.509 0 007.218-5.465l1.618-5.715c3.289-11.598 5.308-17.809 11.738-21.3l11.527-6.262 1.422-.727c.473-.242.914-.516 1.363-.785l82.157-44.613c-.52 10.269-6.047 19.972-15.149 25.5l-53.426 32.46c-.062.036-.125.07-.183.11l-16.63 10.101a7.51 7.51 0 00-2.515 10.313c2.028 3.34 6.246 4.527 9.688 2.851l-12.617 38.141-9.223 3.781-25.078 10.278 7.226-25.547a7.51 7.51 0 00-5.18-9.266c-3.992-1.133-8.136 1.192-9.265 5.18l-11.418 40.379a7.204 7.204 0 00-.27 1.633l-2.988 54.89c-.09 2.094.356 6.051-.613 8.094l-33.188 69.82h-24.117c-14.129 0-25.62 11.492-25.62 25.617v21.66a25.417 25.417 0 00-10.61-2.308H51.137c-14.125 0-25.617 11.488-25.617 25.617v26.875H7.504a7.504 7.504 0 100 15.008H449.94a7.504 7.504 0 100-15.008h-19.515V303.574c0-14.125-11.492-25.617-25.617-25.617H359.41v-130.91c8.32-11.277 11.403-26.059 7.54-40.106a7.49 7.49 0 00-4.298-4.914 7.517 7.517 0 00-3.242-.593v-13.7h90.535c4.54 0 8.504-2.742 10.106-6.984 1.601-4.242.437-8.922-2.965-11.922zm-221.54 60.086a8.645 8.645 0 014.317-5.078l6.715-3.438a8.645 8.645 0 013.953-.957c3.164 0 6.223 1.73 7.762 4.735l8.687 16.957c2.028 3.96.715 8.762-2.89 11.187l-2.445 1.325-5.16 2.644c-4.27 2.188-9.528.492-11.715-3.781l-8.688-16.953a8.65 8.65 0 01-.535-6.64zM220.47 401.84a25.471 25.471 0 00-8.239-2.195l8.239-10.942zm35.629-60.465c3.609-4.324 4.605-9.375 5.41-13.445.203-.97 3.906-21.196 3.906-21.196s3.504 2.184 3.871 2.34a.797.797 0 01.461.656l4.082 41.497H248.68zm44.375-41.418l-6.336 51.234h-5.23l-4.223-42.93a15.81 15.81 0 00-8.84-12.687l-7.547-4.785 5.027-27.863s21.18 25.16 21.672 25.8c4.383 5.7 5.883 7.981 5.477 11.231zm-81.055 36.316c1.516-4.562 2.219-9.207 2.102-13.93l2.726-50.062 34.707-14.222-6.308 34.945c-.02.094-.04.191-.051.285l-5.219 28.895c-.68 2.992-1.273 7.53-3.14 9.996l-50.708 67.351h-4.18zm-178.89 133.84c0-5.847 4.757-10.605 10.609-10.605h61.246c5.851 0 10.613 4.758 10.613 10.605v26.88h-82.47zm97.472 0v-44.965c0-5.851 4.762-10.609 10.613-10.609h61.246c5.852 0 10.61 4.758 10.61 10.61v71.843h-82.465v-26.879zm277.418-166.539v193.418h-82.465V452a7.504 7.504 0 00-7.504-7.504 7.504 7.504 0 00-7.508 7.504v44.992h-82.464V376.84c0-5.848 4.757-10.606 10.609-10.606h61.246c5.852 0 10.61 4.758 10.61 10.606v37.617a7.504 7.504 0 007.503 7.504 7.501 7.501 0 007.504-7.504V303.574c0-5.851 4.762-10.61 10.614-10.61h8.265c.024 0 .05.005.078.005.024 0 .051-.004.074-.004h52.825c5.851 0 10.613 4.762 10.613 10.61zm-71.855-25.617c-14.125 0-25.618 11.492-25.618 25.617v49.961a25.4 25.4 0 00-8.699-2.23l6.121-49.5c1.203-9.649-3.719-16.043-8.476-22.23-.504-.657-29.672-35.29-29.672-35.29l17.894-54.101 49.29-29.946v117.719zM359.41 72.723V26.406h79.387l-17.098 15.055a10.805 10.805 0 00-3.664 8.105c0 3.102 1.336 6.055 3.664 8.106l17.098 15.055H359.41zm0 0"/></symbol><symbol viewBox="0 0 512 512" id="information" xmlns="http://www.w3.org/2000/svg"><path d="M496 360h-32V116a28.031 28.031 0 00-28-28H325.21a111.792 111.792 0 00-138.42 0H76a28.031 28.031 0 00-28 28v244H16a8 8 0 00-8 8v44a28.031 28.031 0 0028 28h440a28.031 28.031 0 0028-28v-44a8 8 0 00-8-8zM256 80a96 96 0 11-96 96 96.115 96.115 0 0196-96zm101.18 48H424v208H88V128h66.82a112 112 0 10202.36 0zM64 116a12.01 12.01 0 0112-12h94.28q-3.24 3.855-6.14 8H80a8 8 0 00-8 8v224a8 8 0 008 8h352a8 8 0 008-8V120a8 8 0 00-8-8h-84.14q-2.895-4.14-6.14-8H436a12.01 12.01 0 0112 12v244H64zm236.9 260l-2.67 8h-84.46l-2.67-8zM488 412a12.01 12.01 0 01-12 12H36a12.01 12.01 0 01-12-12v-36h170.23l6.18 18.53A8 8 0 00208 400h96a8 8 0 007.59-5.47l6.18-18.53H488z"/><path d="M256 152a24 24 0 10-24-24 24.027 24.027 0 0024 24zm0-32a8 8 0 11-8 8 8.009 8.009 0 018-8zm-16 128h32a8 8 0 008-8v-72a8 8 0 00-8-8h-32a8 8 0 00-8 8v72a8 8 0 008 8zm8-72h16v56h-16z"/></symbol><symbol viewBox="0 0 24 24" id="messenger" xmlns="http://www.w3.org/2000/svg"><path d="M0 11.111c0 3.496 1.744 6.615 4.471 8.652V24l4.086-2.242a12.92 12.92 0 003.442.465c6.627 0 12-4.974 12-11.111C24 4.975 18.627 0 12 0S0 4.974 0 11.111zm10.734-3.112l3.13 3.259 5.887-3.259-6.56 6.962-3.055-3.258-5.963 3.259z"/></symbol><symbol viewBox="0 0 473.806 473.806" id="phone-call" xmlns="http://www.w3.org/2000/svg"><path d="M374.456 293.506c-9.7-10.1-21.4-15.5-33.8-15.5-12.3 0-24.1 5.3-34.2 15.4l-31.6 31.5c-2.6-1.4-5.2-2.7-7.7-4-3.6-1.8-7-3.5-9.9-5.3-29.6-18.8-56.5-43.3-82.3-75-12.5-15.8-20.9-29.1-27-42.6 8.2-7.5 15.8-15.3 23.2-22.8 2.8-2.8 5.6-5.7 8.4-8.5 21-21 21-48.2 0-69.2l-27.3-27.3c-3.1-3.1-6.3-6.3-9.3-9.5-6-6.2-12.3-12.6-18.8-18.6-9.7-9.6-21.3-14.7-33.5-14.7s-24 5.1-34 14.7l-.2.2-34 34.3c-12.8 12.8-20.1 28.4-21.7 46.5-2.4 29.2 6.2 56.4 12.8 74.2 16.2 43.7 40.4 84.2 76.5 127.6 43.8 52.3 96.5 93.6 156.7 122.7 23 10.9 53.7 23.8 88 26 2.1.1 4.3.2 6.3.2 23.1 0 42.5-8.3 57.7-24.8.1-.2.3-.3.4-.5 5.2-6.3 11.2-12 17.5-18.1 4.3-4.1 8.7-8.4 13-12.9 9.9-10.3 15.1-22.3 15.1-34.6 0-12.4-5.3-24.3-15.4-34.3l-54.9-55.1zm35.8 105.3c-.1 0-.1.1 0 0-3.9 4.2-7.9 8-12.2 12.2-6.5 6.2-13.1 12.7-19.3 20-10.1 10.8-22 15.9-37.6 15.9-1.5 0-3.1 0-4.6-.1-29.7-1.9-57.3-13.5-78-23.4-56.6-27.4-106.3-66.3-147.6-115.6-34.1-41.1-56.9-79.1-72-119.9-9.3-24.9-12.7-44.3-11.2-62.6 1-11.7 5.5-21.4 13.8-29.7l34.1-34.1c4.9-4.6 10.1-7.1 15.2-7.1 6.3 0 11.4 3.8 14.6 7l.3.3c6.1 5.7 11.9 11.6 18 17.9 3.1 3.2 6.3 6.4 9.5 9.7l27.3 27.3c10.6 10.6 10.6 20.4 0 31-2.9 2.9-5.7 5.8-8.6 8.6-8.4 8.6-16.4 16.6-25.1 24.4-.2.2-.4.3-.5.5-8.6 8.6-7 17-5.2 22.7l.3.9c7.1 17.2 17.1 33.4 32.3 52.7l.1.1c27.6 34 56.7 60.5 88.8 80.8 4.1 2.6 8.3 4.7 12.3 6.7 3.6 1.8 7 3.5 9.9 5.3.4.2.8.5 1.2.7 3.4 1.7 6.6 2.5 9.9 2.5 8.3 0 13.5-5.2 15.2-6.9l34.2-34.2c3.4-3.4 8.8-7.5 15.1-7.5 6.2 0 11.3 3.9 14.4 7.3l.2.2 55.1 55.1c10.3 10.2 10.3 20.7.1 31.3zm-154.2-286.1c26.2 4.4 50 16.8 69 35.8s31.3 42.8 35.8 69c1.1 6.6 6.8 11.2 13.3 11.2.8 0 1.5-.1 2.3-.2 7.4-1.2 12.3-8.2 11.1-15.6-5.4-31.7-20.4-60.6-43.3-83.5s-51.8-37.9-83.5-43.3c-7.4-1.2-14.3 3.7-15.6 11s3.5 14.4 10.9 15.6zm217.2 96.3c-8.9-52.2-33.5-99.7-71.3-137.5s-85.3-62.4-137.5-71.3c-7.3-1.3-14.2 3.7-15.5 11-1.2 7.4 3.7 14.3 11.1 15.6 46.6 7.9 89.1 30 122.9 63.7 33.8 33.8 55.8 76.3 63.7 122.9 1.1 6.6 6.8 11.2 13.3 11.2.8 0 1.5-.1 2.3-.2 7.3-1.1 12.3-8.1 11-15.4z"/></symbol><symbol viewBox="0 0 512 512" id="placeholder" xmlns="http://www.w3.org/2000/svg"><path d="M256 0C156.748 0 76 80.748 76 180c0 33.534 9.289 66.26 26.869 94.652l142.885 230.257A15 15 0 00258.499 512h.119a14.997 14.997 0 0012.75-7.292L410.611 272.22C427.221 244.428 436 212.539 436 180 436 80.748 355.252 0 256 0zm128.866 256.818L258.272 468.186l-129.905-209.34C113.734 235.214 105.8 207.95 105.8 180c0-82.71 67.49-150.2 150.2-150.2S406.1 97.29 406.1 180c0 27.121-7.411 53.688-21.234 76.818z"/><path d="M256 90c-49.626 0-90 40.374-90 90 0 49.309 39.717 90 90 90 50.903 0 90-41.233 90-90 0-49.626-40.374-90-90-90zm0 150.2c-33.257 0-60.2-27.033-60.2-60.2 0-33.084 27.116-60.2 60.2-60.2s60.1 27.116 60.1 60.2c0 32.683-26.316 60.2-60.1 60.2z"/></symbol><symbol viewBox="0 0 470 470" id="quality" xmlns="http://www.w3.org/2000/svg"><path d="M429.591 418.378L367.368 268.16a7.5 7.5 0 10-13.858 5.74l56.251 135.801-51.309-14.867a7.497 7.497 0 00-8.656 3.586l-25.769 46.793-60.357-145.716c69.663-13.434 122.447-74.853 122.447-148.378C386.118 67.792 318.327 0 235 0S83.881 67.792 83.881 151.119c0 33.751 11.124 64.951 29.896 90.133L40.409 418.378a7.5 7.5 0 009.017 10.074l60.533-17.541 30.4 55.207a7.502 7.502 0 0013.499-.748l58.136-140.353a7.5 7.5 0 10-13.858-5.74l-52.165 125.936-25.767-46.793a7.5 7.5 0 00-8.657-3.586l-51.308 14.867 64.397-155.469c27.598 29.52 66.86 48.005 110.364 48.005 4.491 0 8.933-.209 13.325-.594l67.818 163.727a7.498 7.498 0 0013.498.748l30.401-55.207 60.533 17.541a7.499 7.499 0 009.016-10.074zM98.881 151.119C98.881 76.063 159.944 15 235 15s136.118 61.063 136.118 136.119S310.056 287.237 235 287.237 98.881 226.175 98.881 151.119z"/><path d="M321.659 122.961a7.5 7.5 0 00-5.892-5.079l-50.467-8.469-23.649-45.379a7.5 7.5 0 00-13.302 0l-23.65 45.379-50.466 8.469a7.499 7.499 0 00-4.111 12.651l35.85 36.515-7.54 50.614a7.5 7.5 0 0010.761 7.819L235 202.669l45.806 22.812a7.496 7.496 0 007.752-.645 7.5 7.5 0 003.01-7.173l-7.539-50.614 35.85-36.516a7.5 7.5 0 001.78-7.572zm-50.951 36.244a7.498 7.498 0 00-2.066 6.359l5.97 40.074-36.268-18.061a7.506 7.506 0 00-6.687 0l-36.268 18.061 5.97-40.074a7.497 7.497 0 00-2.066-6.359l-28.385-28.912 39.957-6.706a7.499 7.499 0 005.41-3.93L235 83.728l18.725 35.93a7.5 7.5 0 005.41 3.93l39.958 6.706-28.385 28.911z"/><path d="M348.612 158.684c-4.107-.549-7.877 2.343-8.42 6.45-6.957 52.507-52.18 92.104-105.192 92.104-58.514 0-106.119-47.604-106.119-106.119S176.486 45 235 45c53.013 0 98.235 39.596 105.192 92.104.543 4.107 4.32 7.001 8.42 6.45a7.5 7.5 0 006.449-8.42C347.121 75.198 295.506 30 235 30c-66.785 0-121.119 54.333-121.119 121.119S168.215 272.237 235 272.237c60.506 0 112.121-45.198 120.062-105.134a7.5 7.5 0 00-6.45-8.419z"/></symbol><symbol viewBox="0 0 512 512" id="respect" xmlns="http://www.w3.org/2000/svg"><path d="M467.76 88.1a10.052 10.052 0 00-7.071-2.931c-2.64 0-5.21 1.061-7.081 2.931a10.05 10.05 0 00-2.92 7.07c0 2.63 1.061 5.211 2.92 7.071a10.1 10.1 0 007.081 2.93c2.63 0 5.201-1.069 7.071-2.93 1.86-1.86 2.92-4.44 2.92-7.071 0-2.64-1.06-5.211-2.92-7.07zM238.071 323.626a10.05 10.05 0 00-7.071-2.931 10.06 10.06 0 00-7.081 2.931 10.05 10.05 0 00-2.92 7.07c0 2.63 1.061 5.21 2.92 7.071a10.1 10.1 0 007.081 2.93c2.63 0 5.201-1.069 7.071-2.93 1.86-1.86 2.92-4.44 2.92-7.071a10.038 10.038 0 00-2.92-7.07z"/><path d="M491.983 121.313c-2.73-4.802-8.838-6.48-13.637-3.75-4.801 2.73-6.48 8.836-3.749 13.637 29.706 52.238 20.738 118.438-21.81 160.985l-7.583 7.583a37.448 37.448 0 00-8.537-13.182L333.911 183.831a69.099 69.099 0 0018.38-13.168l19.708-19.709c3.905-3.905 3.905-10.238 0-14.143-3.906-3.905-10.237-3.905-14.144 0l-19.708 19.709c-9.259 9.258-21.568 14.357-34.661 14.357h-39.397a10.007 10.007 0 00-7.072 2.929l-30.16 30.16c-8.956 8.957-23.529 8.957-32.485 0-8.957-8.956-8.957-23.529 0-32.485l68.856-68.855C305.307 60.546 371 51.292 422.975 80.122c4.83 2.677 10.918.936 13.597-3.895 2.679-4.83.935-10.918-3.895-13.597-28.668-15.899-62.444-22.262-95.112-17.911-30.572 4.071-58.555 16.872-81.493 37.184-28.179-24.981-64.052-38.642-102.032-38.642-41.146 0-79.828 16.023-108.923 45.117S0 156.157 0 197.302c0 41.146 16.023 79.828 45.117 108.923l3.769 3.769a10.003 10.003 0 002.153 1.626c.669 8.652 4.294 17.116 10.897 23.718 7.349 7.348 16.997 11.02 26.648 11.02.501 0 1.003-.016 1.504-.036-.02.506-.037 1.012-.037 1.521 0 10.066 3.92 19.53 11.038 26.648 7.349 7.348 16.997 11.021 26.648 11.02.501 0 1.003-.016 1.504-.036-.02.506-.037 1.012-.037 1.521 0 10.066 3.92 19.53 11.039 26.648 7.348 7.347 16.998 11.02 26.648 11.02.507 0 1.014-.016 1.521-.036-.406 10.151 3.251 20.437 10.984 28.171 7.119 7.118 16.583 11.038 26.648 11.038 10.067 0 19.531-3.92 26.648-11.038l13.977-13.978 18.879 18.877c7.118 7.119 16.582 11.039 26.648 11.039 10.066 0 19.53-3.92 26.648-11.038 7.826-7.826 11.482-18.267 10.972-28.537a38.3 38.3 0 001.887.049c9.651 0 19.303-3.673 26.65-11.021 7.729-7.729 11.386-18.007 10.984-28.153.506.02 1.012.037 1.521.037 10.066 0 19.53-3.92 26.648-11.038 7.729-7.729 11.386-18.007 10.984-28.153.506.02 1.012.037 1.521.037 10.066 0 19.53-3.92 26.648-11.038a37.473 37.473 0 008.173-12.248 9.99 9.99 0 002.697-1.913l19.394-19.394c48.901-48.891 59.203-124.973 25.06-185.014zM88.585 326.374a17.57 17.57 0 01-12.506-5.18 17.57 17.57 0 01-5.18-12.505c0-4.723 1.839-9.165 5.18-12.505l17.234-17.234a17.567 17.567 0 0112.506-5.18c4.723 0 9.165 1.839 12.505 5.18 6.896 6.896 6.896 18.115 0 25.01l-17.234 17.235a17.57 17.57 0 01-12.505 5.179zm26.65 33.975a17.567 17.567 0 01-5.18-12.505c0-4.724 1.839-9.165 5.18-12.505l17.235-17.235v-.001a17.57 17.57 0 0112.505-5.18c4.723 0 9.165 1.839 12.505 5.18 6.896 6.896 6.896 18.115 0 25.01l-17.234 17.235c-6.897 6.895-18.119 6.895-25.011.001zm39.153 39.153a17.567 17.567 0 01-5.18-12.505c0-4.724 1.839-9.165 5.18-12.505l17.235-17.235v-.001a17.57 17.57 0 0112.505-5.18c4.724 0 9.165 1.839 12.505 5.18 6.896 6.897 6.896 18.116 0 25.011l-17.235 17.235c-6.895 6.896-18.114 6.896-25.01 0zm81.399 21.92l-17.235 17.236a17.57 17.57 0 01-12.505 5.18 17.567 17.567 0 01-12.505-5.18c-6.896-6.897-6.896-18.116 0-25.011l17.235-17.235v-.001a17.57 17.57 0 0112.505-5.18c4.723 0 9.165 1.839 12.505 5.18a17.567 17.567 0 015.18 12.505 17.56 17.56 0 01-5.18 12.506zm186.736-95.683a17.567 17.567 0 01-12.505 5.18 17.565 17.565 0 01-12.505-5.18l-41.627-41.627-.005-.005-39.15-39.15c-3.906-3.905-10.237-3.905-14.144 0-3.905 3.905-3.905 10.238 0 14.143l80.782 80.78c6.896 6.897 6.896 18.116 0 25.011a17.567 17.567 0 01-12.505 5.18 17.565 17.565 0 01-12.505-5.18l-80.782-80.781c-3.906-3.904-10.237-3.904-14.144 0-3.905 3.905-3.905 10.238 0 14.144l39.146 39.145.009.01 41.628 41.626c6.896 6.897 6.896 18.117.001 25.012-6.897 6.896-18.118 6.896-25.011 0l-41.628-41.628a9.985 9.985 0 00-2.556-1.847l-11.873-11.873c-3.906-3.904-10.237-3.904-14.144 0-3.905 3.905-3.905 10.238 0 14.144l55.702 55.7c6.896 6.897 6.896 18.116 0 25.011a17.567 17.567 0 01-12.505 5.18 17.565 17.565 0 01-12.505-5.18l-21.196-21.195a37.678 37.678 0 002.469-13.444c0-10.066-3.92-19.53-11.038-26.648-7.119-7.118-16.583-11.038-26.648-11.038-.509 0-1.015.017-1.521.037.401-10.146-3.255-20.424-10.984-28.153-7.119-7.118-16.583-11.038-26.648-11.038-.509 0-1.015.017-1.521.037.402-10.146-3.255-20.424-10.984-28.153-7.119-7.118-16.583-11.038-26.648-11.038-.509 0-1.015.017-1.521.037.402-10.146-3.255-20.424-10.984-28.153-14.694-14.694-38.605-14.693-53.299 0L61.94 282.039a37.668 37.668 0 00-5.549 7.071C32.9 264.159 20.006 231.722 20.006 197.3c0-35.803 13.942-69.464 39.26-94.78 25.316-25.316 58.978-39.259 94.78-39.259 32.536 0 63.302 11.516 87.644 32.618l-61.457 61.457c-8.116 8.117-12.586 18.908-12.586 30.386 0 11.479 4.47 22.27 12.586 30.387 8.378 8.377 19.383 12.566 30.387 12.566s22.009-4.188 30.387-12.566l27.232-27.232h35.253c2.911 0 5.79-.199 8.634-.552l110.403 110.401c6.889 6.899 6.889 18.119-.006 25.013z"/></symbol><symbol viewBox="0 0 64 64" id="safe" xmlns="http://www.w3.org/2000/svg"><path d="M56.62 50.51a3.415 3.415 0 00-3.04-.55L39.86 54h-7.6l-5.4-3H37a1 1 0 001-1v-3a1.033 1.033 0 00-.29-.71l-2-2a1.014 1.014 0 00-.51-.27l-15-3A1.355 1.355 0 0020 41h-6a.937.937 0 00-.37.07L10 42.52V41a1 1 0 00-.84-.99l-6-1a1.039 1.039 0 00-.81.23A1.011 1.011 0 002 40v20a1 1 0 001 1 .86.86 0 00.16-.01l6-1A1 1 0 0010 59v-1h2.84l11.84 3.95A1.185 1.185 0 0025 62h15a.919.919 0 00.33-.06l15.37-5.42a3.449 3.449 0 002.3-3.25 3.411 3.411 0 00-1.38-2.76zM8 58.15l-4 .67V41.18l4 .67zm47.04-3.52L39.83 60H25.16l-11.84-3.95A1.185 1.185 0 0013 56h-3V44.68L14.19 43h5.71l14.61 2.92L36 47.41V49H23a1 1 0 00-.49 1.87l9 5A.947.947 0 0032 56h8a.863.863 0 00.28-.04l13.87-4.08a1.413 1.413 0 011.27.23 1.446 1.446 0 01-.38 2.52zM32 40c8.822 0 16-9.421 16-21V7a1 1 0 00-.742-.966l-15-4a1 1 0 00-.516 0l-15 4A1 1 0 0016 7v12c0 11.579 7.178 21 16 21zM18 7.769l14-3.734 14 3.734V19c0 10.477-6.28 19-14 19s-14-8.523-14-19z"/><path d="M28 25v3a2 2 0 002 2h4a2 2 0 002-2v-3h3a2 2 0 002-2v-4a2 2 0 00-2-2h-3v-3a2 2 0 00-2-2h-4a2 2 0 00-2 2v3h-3a2 2 0 00-2 2v4a2 2 0 002 2zm-3-6h3a2 2 0 002-2v-3h4v3a2 2 0 002 2h3v4h-3a2 2 0 00-2 2v3h-4v-3a2 2 0 00-2-2h-3zM52 8h2V6h2V4h-2V2h-2v2h-2v2h2zm10 2h-2V8h-2v2h-2v2h2v2h2v-2h2zM48 33v2h-2v2h2v2h2v-2h2v-2h-2v-2zm8-6h-2v2h-2v2h2v2h2v-2h2v-2h-2zM10 8h2V6h2V4h-2V2h-2v2H8v2h2zm-6 6h2v-2h2v-2H6V8H4v2H2v2h2zm10 19v2h-2v2h2v2h2v-2h2v-2h-2v-2zm-4 0v-2h2v-2h-2v-2H8v2H6v2h2v2z"/></symbol><symbol viewBox="0 -10 511.991 511" id="star" xmlns="http://www.w3.org/2000/svg"><path d="M510.652 185.883a27.177 27.177 0 00-23.402-18.688l-147.797-13.418-58.41-136.75C276.73 6.98 266.918.497 255.996.497s-20.738 6.483-25.023 16.53l-58.41 136.75-147.82 13.418c-10.837 1-20.013 8.34-23.403 18.688a27.25 27.25 0 007.937 28.926L121 312.773 88.059 457.86c-2.41 10.668 1.73 21.7 10.582 28.098a27.087 27.087 0 0015.957 5.184 27.14 27.14 0 0013.953-3.86l127.445-76.203 127.422 76.203a27.197 27.197 0 0029.934-1.324c8.851-6.398 12.992-17.43 10.582-28.098l-32.942-145.086 111.723-97.964a27.246 27.246 0 007.937-28.926zM258.45 409.605"/></symbol><symbol viewBox="0 0 480.058 480.058" id="value" xmlns="http://www.w3.org/2000/svg"><path d="M368.033 88.029h-.004c-13.249-.014-23.986-10.751-24-24a8 8 0 00-16 0c-.014 13.249-10.751 23.986-24 24a8 8 0 000 16c13.249.014 23.986 10.751 24 24a8 8 0 0016 0c.014-13.249 10.751-23.986 24-24a7.998 7.998 0 008-7.996v-.004a7.998 7.998 0 00-7.996-8zm-32.004 16.024a40.338 40.338 0 00-8.023-8.023 40.338 40.338 0 008.023-8.023 40.338 40.338 0 008.023 8.023 40.311 40.311 0 00-8.023 8.023zm-160-16.024c-13.249-.014-23.986-10.751-24-24a8 8 0 00-16 0c-.014 13.249-10.751 23.986-24 24a8 8 0 000 16c13.249.014 23.986 10.751 24 24a8 8 0 0016 0c.014-13.249 10.751-23.986 24-24a8 8 0 000-16zm-32 16.024a40.338 40.338 0 00-8.023-8.023 40.338 40.338 0 008.023-8.023 40.338 40.338 0 008.023 8.023 40.311 40.311 0 00-8.023 8.023zm128-72.024c-13.249-.014-23.986-10.751-24-24a7.998 7.998 0 00-7.996-8h-.004a7.998 7.998 0 00-8 7.996v.004c-.014 13.249-10.751 23.986-24 24a8 8 0 000 16c13.249.014 23.986 10.751 24 24a8 8 0 0016 0c.014-13.249 10.751-23.986 24-24a8 8 0 000-16zm-32 16.024a40.338 40.338 0 00-8.023-8.023 40.338 40.338 0 008.023-8.023 40.338 40.338 0 008.023 8.023 40.311 40.311 0 00-8.023 8.023zm0 71.976c-70.692 0-128 57.308-128 128s57.308 128 128 128c70.659-.081 127.919-57.341 128-128 0-70.692-57.308-128-128-128zm0 240c-61.856 0-112-50.144-112-112s50.144-112 112-112 112 50.144 112 112c-.07 61.827-50.173 111.931-112 112z"/><path d="M160.029 240.029h16c.04-35.329 28.671-63.96 64-64v-16c-44.162.051-79.95 35.838-80 80zm320 131.977l-.133-141.34c-.023-22.027-13.719-38.637-31.867-38.637h-1.531c-17.663.944-31.827 14.951-32.969 32.602l-19.672 101.234a26.386 26.386 0 00-19.109 4.543l-60.375 42.461a24.417 24.417 0 00-10.344 19.937v79.223a7.998 7.998 0 007.996 8h80.004a7.998 7.998 0 008-7.996v-10.125l52.672-33.535a67.686 67.686 0 0027.328-56.367zm-36.086 42.976l-56.211 35.785a8.008 8.008 0 00-3.703 6.75v6.512h-64v-71.223a8.397 8.397 0 013.555-6.856l60.367-42.457c4.715-3.315 11.224-2.179 14.539 2.536a10.433 10.433 0 011.898 5.999 10.22 10.22 0 01-2.555 6.918l-50.961 42.965 10.312 12.234 51.461-43.422c10.305-10.306 10.326-27.008.047-37.34l20.625-106.242c.233-9.735 7.525-17.847 17.18-19.113h1.531c9.031 0 15.852 9.738 15.867 22.652l.133 141.332a51.563 51.563 0 01-20.085 42.97zm-278.266-42.117l-60.367-42.457a26.407 26.407 0 00-19.109-4.543L66.615 225.174c-.981-17.849-15.209-32.115-33.055-33.145h-1.531c-18.148 0-31.844 16.609-31.867 38.637L.029 372.014a67.731 67.731 0 0027.492 56.469l52.508 33.426v10.121a7.998 7.998 0 007.996 8h80.004a7.998 7.998 0 008-7.996v-79.227a24.418 24.418 0 00-10.352-19.942zm-5.648 91.164h-64v-6.512a8.008 8.008 0 00-3.703-6.75l-56.047-35.676a51.597 51.597 0 01-20.25-43.07l.133-141.34c.016-12.914 6.836-22.652 15.867-22.652h1.531c9.83 1.37 17.175 9.731 17.266 19.656l20.539 105.699c-10.279 10.332-10.258 27.034.047 37.34.294.292.61.561.945.805l58.961 42.965 9.422-12.93-58.391-42.547c-3.858-4.283-3.514-10.882.768-14.74a10.437 10.437 0 0112.99-.783l60.359 42.453a8.396 8.396 0 013.563 6.859v71.223z"/></symbol><symbol viewBox="0 0 24 24" id="viber" xmlns="http://www.w3.org/2000/svg"><path d="M23.155 13.893c.716-6.027-.344-9.832-2.256-11.553l.001-.001C17.814-.6 7.392-1.035 3.7 2.471 2.042 4.186 1.458 6.703 1.394 9.819c-.064 3.117-.14 8.956 5.301 10.54H6.7l-.005 2.419s-.037.98.589 1.177c.716.232 1.04-.223 3.267-2.883 3.724.323 6.584-.417 6.909-.525.752-.252 5.007-.815 5.695-6.654zM10.918 19.37s-2.357 2.939-3.09 3.702c-.24.248-.503.225-.499-.267 0-.323.018-4.016.018-4.016-4.613-1.322-4.341-6.294-4.291-8.895.05-2.602.526-4.733 1.93-6.168C8.225.689 17.362 1.368 19.69 3.556c2.846 2.523 1.833 9.651 1.839 9.894-.585 4.874-4.033 5.183-4.667 5.394-.271.09-2.786.737-5.944.526z"/><path d="M12.222 4.297c-.385 0-.385.6 0 .605 2.987.023 5.447 2.105 5.474 5.924 0 .403.59.398.585-.005h-.001c-.032-4.115-2.718-6.501-6.058-6.524z"/><path d="M16.151 10.193c-.009.398.58.417.585.014.049-2.269-1.35-4.138-3.979-4.335-.385-.028-.425.577-.041.605 2.28.173 3.481 1.729 3.435 3.716zm-.63 2.581c-.494-.286-.997-.108-1.205.173l-.435.563c-.221.286-.634.248-.634.248-3.014-.797-3.82-3.951-3.82-3.951s-.037-.427.239-.656l.544-.45c.272-.216.444-.736.167-1.247-.74-1.337-1.237-1.798-1.49-2.152-.266-.333-.666-.408-1.082-.183h-.009c-.865.506-1.812 1.453-1.509 2.428.517 1.028 1.467 4.305 4.495 6.781 1.423 1.171 3.675 2.371 4.631 2.648l.009.014c.942.314 1.858-.67 2.347-1.561v-.007c.217-.431.145-.839-.172-1.106-.562-.548-1.41-1.153-2.076-1.542z"/><path d="M13.169 8.104c.961.056 1.427.558 1.477 1.589.018.403.603.375.585-.028-.064-1.346-.766-2.096-2.03-2.166-.385-.023-.421.582-.032.605z"/></symbol><symbol viewBox="0 0 32 32" id="vodafone_6830" xmlns="http://www.w3.org/2000/svg"><path d="M1.2 1.2C.4 2 0 6.8 0 16.2 0 28.8.2 30 1.9 31c2.6 1.3 25.6 1.3 28.2 0 1.7-1 1.9-2.2 1.9-14.8 0-9.4-.4-14.2-1.2-15C29.1-.5 2.9-.5 1.2 1.2zm15.4 5.1c-6.4 3.9-8.1 8.2-5 12.5 1.7 2.4 6.2 3 8.2 1 2-2 1.4-6.5-1-8.3-1.8-1.2-2.1-1.9-1.2-3.2 1.6-2.6 2.9-2.6 5.9-.1 1.8 1.6 2.8 3.6 3.2 6.5.5 3.9.2 4.6-3 7.8-2.9 2.9-4.2 3.5-7.7 3.5-3.4 0-4.8-.6-7.6-3.4-3.5-3.5-4.2-6.4-2.4-11C7.1 8.5 12.5 5 16 5.1c2.4 0 2.4.1.6 1.2z"/></symbol><symbol viewBox="0 0 496 496" id="whatsapp" xmlns="http://www.w3.org/2000/svg"><path d="M321.824 276.528c-.88-1.424-3.168-2.304-6.608-4.016-3.456-1.68-20.48-10-23.632-11.152-1.376-.496-2.592-.896-3.712-.896-1.472 0-2.784.672-4.08 2.608-2.304 3.44-8.944 11.152-10.944 13.456-1.136 1.312-2.304 1.968-3.712 1.968-1.056 0-2.288-.368-3.76-1.12-3.488-1.68-14.624-5.328-27.824-16.992-10.272-9.104-17.216-20.336-19.248-23.776-2.016-3.408-.208-5.28 1.536-6.976 1.552-1.584 3.44-4.032 5.2-6.032 1.728-2 2.304-3.424 3.44-5.712 1.136-2.288.576-4.304-.304-6.016-.848-1.712-7.76-18.592-10.672-25.472-2.144-5.12-4.304-5.776-6.096-5.776-.608 0-1.184.08-1.696.08-1.984 0-4.272-.304-6.608-.304-2.304 0-6.032.864-9.216 4.32-3.152 3.408-12.112 11.712-12.112 28.592 0 16.896 12.384 33.184 14.144 35.472 1.712 2.304 23.92 38.064 59.056 51.808 20.368 7.968 28.944 9.776 33.776 9.776 3.52 0 5.056-.96 7.728-1.2 6.32-.56 20.448-8.32 23.344-16.32 2.88-8 2.88-14.896 2-16.32z"/><path d="M362.944 0H133.056C60.928 0 0 60.944 0 133.056v229.872C0 435.056 60.928 496 133.056 496h229.888C435.056 496 496 435.056 496 362.912V133.056C496 60.944 435.072 0 362.944 0zM464 362.912c0 54.784-46.272 101.072-101.056 101.072H133.056C78.288 463.984 32 417.712 32 362.912V133.056C32 78.288 78.288 32 133.056 32h229.888C417.712 32 464 78.272 464 133.056v229.856z"/><path d="M250.608 88.32c-86.592 0-157.04 69.968-157.04 155.984 0 25.936 6.448 51.36 18.736 73.968l-23.12 68.256a16.003 16.003 0 003.728 16.336c3.056 3.136 7.2 4.8 11.424 4.8 1.616 0 3.248-.24 4.848-.752l71.76-22.784c21.52 10.56 45.456 16.128 69.664 16.128 86.608 0 157.072-69.952 157.072-155.952 0-86.016-70.464-155.984-157.072-155.984zm-.032 279.952c-21.184 0-42.096-5.328-60.464-15.424a16.054 16.054 0 00-12.56-1.216L129.6 366.848l15.296-45.12c1.52-4.48.976-9.424-1.488-13.472-11.696-19.2-17.872-41.312-17.872-63.936 0-68.352 56.096-123.984 125.04-123.984 68.96 0 125.072 55.632 125.072 123.984 0 68.336-56.096 123.952-125.072 123.952z"/></symbol><symbol viewBox="0 0 410.988 410.988" id="zoom-directions" xmlns="http://www.w3.org/2000/svg"><path d="M149.654 195.495a7.5 7.5 0 00-7.5-7.5l-78.262-.001 12.527-12.528a7.501 7.501 0 000-10.606l-14.143-14.143a7.5 7.5 0 00-10.607 0L2.197 200.191a7.497 7.497 0 000 10.606l49.473 49.474a7.483 7.483 0 005.305 2.197 7.477 7.477 0 005.303-2.197l14.143-14.143a7.501 7.501 0 000-10.606l-12.527-12.527 78.262.001a7.5 7.5 0 007.5-7.5v-20.001zm259.137 4.696l-49.473-49.474a7.5 7.5 0 00-10.607 0l-14.143 14.143a7.501 7.501 0 000 10.606l12.527 12.528-78.262.001a7.5 7.5 0 00-7.5 7.5v20a7.5 7.5 0 007.5 7.5l78.262-.001-12.527 12.527a7.501 7.501 0 000 10.606l14.143 14.143a7.481 7.481 0 005.303 2.197c1.92 0 3.84-.732 5.305-2.197l49.473-49.474a7.497 7.497 0 00-.001-10.605zM164.859 76.42a7.502 7.502 0 0010.608 0l12.527-12.527v78.262c0 1.99.789 3.896 2.195 5.305a7.502 7.502 0 005.305 2.195h20a7.5 7.5 0 007.5-7.5V63.893l12.527 12.527a7.502 7.502 0 0010.608 0l14.143-14.143a7.502 7.502 0 000-10.607L210.797 2.197a7.496 7.496 0 00-10.605 0L150.717 51.67a7.485 7.485 0 00-2.195 5.305c0 1.918.733 3.838 2.195 5.303l14.142 14.142zm81.27 258.148a7.503 7.503 0 00-10.608 0l-12.527 12.527v-78.262a7.5 7.5 0 00-7.5-7.5h-20c-1.99 0-3.898.789-5.305 2.195a7.504 7.504 0 00-2.195 5.305v78.262l-12.527-12.527a7.501 7.501 0 00-10.608 0l-14.143 14.143a7.484 7.484 0 00-2.195 5.303c0 1.92.733 3.84 2.195 5.305l49.475 49.473a7.496 7.496 0 0010.605 0l49.475-49.473a7.502 7.502 0 000-10.607l-14.142-14.144z"/></symbol></svg>